<svg width="51" height="51" viewBox="0 0 51 51" fill="none" xmlns="http://www.w3.org/2000/svg">
<path fill-rule="evenodd" clip-rule="evenodd" d="M39.1867 17.1759C23.0044 26.9858 20.2785 28.152 13.909 22.393C15.4884 27.8963 14.7668 31.8985 11.823 35.9922C19.109 33.7715 20.4381 35.8003 24.1366 38.3394C21.8601 31.1522 25.0526 28.7875 39.1867 17.1759Z" stroke="#FFB23F" stroke-width="3" stroke-miterlimit="1.5" stroke-linecap="round" stroke-linejoin="round"/>
<path d="M33.1123 31.7903C33.3434 32.5452 33.4351 33.3468 33.5837 34.1209" stroke="#FFB23F" stroke-width="3" stroke-miterlimit="1.5" stroke-linecap="round" stroke-linejoin="round"/>
<path d="M30.0691 36.6563C30.6687 36.5643 31.2742 36.3939 31.867 36.2556" stroke="#FFB23F" stroke-width="3" stroke-miterlimit="1.5" stroke-linecap="round" stroke-linejoin="round"/>
<path d="M34.3106 37.6726C34.3086 38.4141 34.4414 39.3727 34.6746 40.0878" stroke="#FFB23F" stroke-width="3" stroke-miterlimit="1.5" stroke-linecap="round" stroke-linejoin="round"/>
<path d="M36.2236 35.5363C37.0232 35.601 37.8655 35.2785 38.6645 35.1788" stroke="#FFB23F" stroke-width="3" stroke-miterlimit="1.5" stroke-linecap="round" stroke-linejoin="round"/>
<path d="M18.5901 10.7006C18.6766 11.5475 18.8201 12.3838 18.9882 13.2169" stroke="#FFB23F" stroke-width="3" stroke-miterlimit="1.5" stroke-linecap="round" stroke-linejoin="round"/>
<path d="M15.2627 15.4507C15.8964 15.394 16.5033 15.3153 17.1274 15.2015" stroke="#FFB23F" stroke-width="3" stroke-miterlimit="1.5" stroke-linecap="round" stroke-linejoin="round"/>
<path d="M19.6582 16.7291C19.6714 17.5213 19.8292 18.3633 19.9899 19.1422" stroke="#FFB23F" stroke-width="3" stroke-miterlimit="1.5" stroke-linecap="round" stroke-linejoin="round"/>
<path d="M21.6602 14.5608C22.3816 14.3809 23.049 14.1379 23.7952 14.0525" stroke="#FFB23F" stroke-width="3" stroke-miterlimit="1.5" stroke-linecap="round" stroke-linejoin="round"/>
</svg>
